<svg xmlns="http://www.w3.org/2000/svg" xmlns:xlink="http://www.w3.org/1999/xlink" width="45" height="48.147" viewBox="0 0 45 48.147">
  <defs>
    <linearGradient id="linear-gradient" x1="0.308" y1="0.308" x2="0.828" y2="0.828" gradientUnits="objectBoundingBox">
      <stop offset="0" stop-color="#7faef4"/>
      <stop offset="1" stop-color="#4c8df1"/>
    </linearGradient>
    <linearGradient id="linear-gradient-2" x1="0.821" y1="0.821" x2="0.126" y2="0.126" xlink:href="#linear-gradient"/>
    <linearGradient id="linear-gradient-3" x1="0.428" y1="0.45" x2="-0.035" y2="0.205" gradientUnits="objectBoundingBox">
      <stop offset="0" stop-color="#4c8df1" stop-opacity="0"/>
      <stop offset="0.563" stop-color="#466cc8" stop-opacity="0.565"/>
      <stop offset="1" stop-color="#4256ac"/>
    </linearGradient>
    <linearGradient id="linear-gradient-4" x1="0.608" y1="0.634" x2="-0.093" y2="0.449" xlink:href="#linear-gradient-3"/>
    <linearGradient id="linear-gradient-5" x1="0.464" y1="0.418" x2="1.086" y2="0.86" gradientUnits="objectBoundingBox">
      <stop offset="0" stop-color="#ffd833"/>
      <stop offset="1" stop-color="#f2b631"/>
    </linearGradient>
    <linearGradient id="linear-gradient-6" x1="0.801" y1="0.671" x2="0.39" y2="-0.096" gradientUnits="objectBoundingBox">
      <stop offset="0" stop-color="#f9a126" stop-opacity="0"/>
      <stop offset="1" stop-color="#ec4437"/>
    </linearGradient>
    <linearGradient id="linear-gradient-7" x1="0.317" y1="0.252" x2="0.97" y2="0.967" xlink:href="#linear-gradient-5"/>
    <linearGradient id="linear-gradient-8" x1="0.875" y1="0.78" x2="-0.125" y2="-0.215" xlink:href="#linear-gradient-5"/>
  </defs>
  <g id="google" transform="translate(-16.666)">
    <path id="Path_5527" data-name="Path 5527" d="M61.666,26.538V18.462A2.064,2.064,0,0,0,59.6,16.4h-.637a2.074,2.074,0,0,1-1.913-1.29l-.011-.026a2.075,2.075,0,0,1,.44-2.268l.451-.451a2.064,2.064,0,0,0,0-2.919l-5.71-5.71a2.064,2.064,0,0,0-2.919,0l-.451.451a2.075,2.075,0,0,1-2.268.44l-.026-.011A2.074,2.074,0,0,1,45.268,2.7V2.064A2.064,2.064,0,0,0,43.2,0H35.128a2.064,2.064,0,0,0-2.064,2.064V2.7a2.074,2.074,0,0,1-1.29,1.913l-.026.011a2.075,2.075,0,0,1-2.268-.44l-.451-.451a2.064,2.064,0,0,0-2.919,0L20.4,9.445a2.064,2.064,0,0,0,0,2.919l.451.451a2.075,2.075,0,0,1,.44,2.268l-.011.026a2.074,2.074,0,0,1-1.913,1.29H18.73a2.064,2.064,0,0,0-2.064,2.064v8.075A2.064,2.064,0,0,0,18.73,28.6h.637a2.074,2.074,0,0,1,1.913,1.29l.011.026a2.075,2.075,0,0,1-.44,2.268l-.451.451a2.064,2.064,0,0,0,0,2.919l5.71,5.71a2.064,2.064,0,0,0,2.919,0l.451-.451a2.075,2.075,0,0,1,2.268-.44l.026.011a2.074,2.074,0,0,1,1.29,1.913v.637A2.064,2.064,0,0,0,35.128,45H43.2a2.064,2.064,0,0,0,2.064-2.064V42.3a2.074,2.074,0,0,1,1.29-1.913l.026-.011a2.075,2.075,0,0,1,2.268.44l.451.451a2.064,2.064,0,0,0,2.919,0l5.71-5.71a2.064,2.064,0,0,0,0-2.919l-.451-.451a2.075,2.075,0,0,1-.44-2.268l.011-.026a2.074,2.074,0,0,1,1.913-1.29H59.6a2.064,2.064,0,0,0,2.064-2.064Z" fill="url(#linear-gradient)"/>
    <circle id="Ellipse_47" data-name="Ellipse 47" cx="15.665" cy="15.665" r="15.665" transform="translate(23.501 6.835)" fill="url(#linear-gradient-2)"/>
    <path id="Path_5528" data-name="Path 5528" d="M155.6,140.188a2.064,2.064,0,0,1-2.053,1.853h-.638a2.074,2.074,0,0,0-1.913,1.29l-.011.026a2.076,2.076,0,0,0,.44,2.268l.452.451a2.064,2.064,0,0,1,0,2.919l-5.711,5.71a2.063,2.063,0,0,1-2.919,0l-.451-.451a2.076,2.076,0,0,0-2.268-.44l-.026.011a2.073,2.073,0,0,0-1.289,1.913v.638a2.064,2.064,0,0,1-1.864,2.054l-13.015-13.022a12.7,12.7,0,0,1-3.929-9.445,12.347,12.347,0,0,1,5.2-10.327c.406-.291.922-.38,1.2-.044.093.113,11.207,11.208,11.333,11.329a2.9,2.9,0,0,0,1.071-2.248v-8.521a.884.884,0,0,1,1.394-.722,13.015,13.015,0,0,1,1.989,1.756Z" transform="translate(-93.944 -113.439)" fill="url(#linear-gradient-3)"/>
    <path id="Path_5529" data-name="Path 5529" d="M322.651,156.318l-.451-.451a2.075,2.075,0,0,1-.44-2.268l.011-.026a2.074,2.074,0,0,1,1.913-1.29h.637a2.064,2.064,0,0,0,2.053-1.851l-13-13q-.413-.448-.867-.853a12.91,12.91,0,0,1-3.522,19.978v11.834a2.061,2.061,0,0,0,1.005-1.769v-.637a2.074,2.074,0,0,1,1.29-1.913l.026-.011a2.075,2.075,0,0,1,2.268.44l.451.451a2.064,2.064,0,0,0,2.919,0l5.71-5.71A2.064,2.064,0,0,0,322.651,156.318Z" transform="translate(-264.72 -123.682)" fill="url(#linear-gradient-4)"/>
    <path id="Path_5530" data-name="Path 5530" d="M201.007,339.23a26.468,26.468,0,0,0,.413-4.655V323.918H188.948v10.657a26.468,26.468,0,0,0,.413,4.655,2.768,2.768,0,0,0,2.743,2.255h6.16A2.768,2.768,0,0,0,201.007,339.23Z" transform="translate(-156.018 -293.338)" fill="url(#linear-gradient-5)"/>
    <path id="Path_5531" data-name="Path 5531" d="M188.948,327.219l12.089,11.829a26.461,26.461,0,0,0,.382-4.474V323.918H188.948Z" transform="translate(-156.018 -293.338)" fill="url(#linear-gradient-6)"/>
    <path id="Path_5532" data-name="Path 5532" d="M144.088,135.941a12.908,12.908,0,1,1-20.411-10.5.885.885,0,0,1,1.4.718v8.52a2.9,2.9,0,0,0,1.45,2.512l3.2,1.849a2.9,2.9,0,0,0,2.9,0l3.2-1.849a2.9,2.9,0,0,0,1.45-2.512v-8.52a.884.884,0,0,1,1.394-.722A12.891,12.891,0,0,1,144.088,135.941Z" transform="translate(-92.015 -113.441)" fill="url(#linear-gradient-7)"/>
    <path id="Path_5533" data-name="Path 5533" d="M153.814,137.029a4.541,4.541,0,0,0,2.27,3.932l5.012,2.894a4.54,4.54,0,0,0,4.541,0l5.012-2.894a4.54,4.54,0,0,0,2.27-3.932v-9.767a12.971,12.971,0,0,0-2.056-1.83.884.884,0,0,0-1.394.722v8.52a2.9,2.9,0,0,1-1.45,2.512l-3.2,1.849a2.9,2.9,0,0,1-2.9,0l-3.2-1.849a2.9,2.9,0,0,1-1.45-2.512v-8.52a.885.885,0,0,0-1.4-.718,12.98,12.98,0,0,0-2.05,1.825v9.767Z" transform="translate(-124.201 -113.442)" fill="url(#linear-gradient-8)"/>
  </g>
</svg>
