<?xml version="1.0" encoding="utf-8"?>
<!-- Generator: Adobe Illustrator 26.5.0, SVG Export Plug-In . SVG Version: 6.00 Build 0)  -->
<svg version="1.1" id="Layer_1" xmlns="http://www.w3.org/2000/svg" xmlns:xlink="http://www.w3.org/1999/xlink" x="0px" y="0px"
	 viewBox="0 0 512 512" style="enable-background:new 0 0 512 512;" xml:space="preserve">
<style type="text/css">
	.st0{fill:#999999;}
</style>
<g id="_39.Projector">
	<path class="st0" d="M355.2,112.2c-60.2,0-109,48.8-109,109s48.8,109,109,109s109-48.8,109-109c0,0,0,0,0,0
		C464.2,161,415.4,112.3,355.2,112.2z M355.2,295.2c-40.9,0-74-33.1-74-74s33.1-74,74-74s74,33.1,74,74
		C429.2,262.1,396.1,295.2,355.2,295.2L355.2,295.2z"/>
	<path class="st0" d="M77.9,384.8h38.7c16.1,0,29.3-12.9,29.6-29h-98C48.6,371.9,61.8,384.8,77.9,384.8z"/>
	<path class="st0" d="M395.4,384.8h38.7c16.1,0,29.3-12.9,29.6-29h-98C366.1,371.9,379.3,384.8,395.4,384.8z"/>
	<path class="st0" d="M461.6,166h-0.9c30.5,58.2,8,130.1-50.2,160.6s-130.1,8-160.6-50.2c-18.1-34.6-18.1-75.8,0-110.4H50.4
		c-19,0-34.4,15.4-34.4,34.4v111c0,19,15.4,34.4,34.4,34.4h411.2c19,0,34.4-15.4,34.4-34.4v-111C496,181.4,480.6,166,461.6,166
		L461.6,166z M203.3,308.4H42.8c-3.3,0-6-2.7-6-6s2.7-6,6-6h160.5c3.3,0,6,2.7,6,6S206.6,308.4,203.3,308.4z M203.3,258.4H42.8
		c-3.3,0-6-2.7-6-6s2.7-6,6-6h160.5c3.3,0,6,2.7,6,6S206.6,258.4,203.3,258.4z M203.3,208.4H42.8c-3.3,0-6-2.7-6-6s2.7-6,6-6h160.5
		c3.3,0,6,2.7,6,6S206.6,208.4,203.3,208.4z"/>
</g>
<g>
	<path class="st0" d="M392.5,213.3h-29.3v-29.3c0-4.4-3.6-8-8-8s-8,3.6-8,8v29.3h-29.3c-4.4,0-8,3.6-8,8s3.6,8,8,8h29.3v29.3
		c0,4.4,3.6,8,8,8s8-3.6,8-8v-29.3h29.3c4.4,0,8-3.6,8-8S396.9,213.3,392.5,213.3z"/>
</g>
</svg>
