<?xml version="1.0" encoding="utf-8"?>
<!-- Generator: Adobe Illustrator 26.5.0, SVG Export Plug-In . SVG Version: 6.00 Build 0)  -->
<svg version="1.1" id="Capa_1" xmlns="http://www.w3.org/2000/svg" xmlns:xlink="http://www.w3.org/1999/xlink" x="0px" y="0px"
	 viewBox="0 0 512 512" style="enable-background:new 0 0 512 512;" xml:space="preserve">
<style type="text/css">
	.st0{fill:#999999;}
</style>
<g>
	<path class="st0" d="M494.6,67.1H17.4C7.8,67.1,0,74.9,0,84.5v259.4c0,9.6,7.8,17.4,17.4,17.4h477.2c9.6,0,17.4-7.8,17.4-17.4V84.5
		C512,74.9,504.2,67.1,494.6,67.1z M318.2,227.4h-49v49c0,7.3-5.9,13.3-13.3,13.3c-7.3,0-13.3-5.9-13.3-13.3v-49h-49
		c-7.3,0-13.3-5.9-13.3-13.3s5.9-13.3,13.3-13.3h49v-49c0-7.3,5.9-13.3,13.3-13.3c7.3,0,13.3,5.9,13.3,13.3v49h49
		c7.3,0,13.3,5.9,13.3,13.3S325.6,227.4,318.2,227.4z"/>
	<path id="XMLID_1626_" class="st0" d="M355.4,414.7h-59.1v-23.3h-80.7v23.3h-59.1c-8.3,0-15.1,6.8-15.1,15.1
		c0,8.3,6.8,15.1,15.1,15.1h198.8c8.3,0,15.1-6.8,15.1-15.1C370.5,421.5,363.8,414.7,355.4,414.7L355.4,414.7z"/>
</g>
</svg>
