<?xml version="1.0" encoding="utf-8"?>
<!-- Generator: Adobe Illustrator 26.5.0, SVG Export Plug-In . SVG Version: 6.00 Build 0)  -->
<svg version="1.1" id="Capa_1" xmlns="http://www.w3.org/2000/svg" xmlns:xlink="http://www.w3.org/1999/xlink" x="0px" y="0px"
	 viewBox="0 0 491.5 491.5" style="enable-background:new 0 0 491.5 491.5;" xml:space="preserve">
<style type="text/css">
	.st0{fill:#999999;}
</style>
<g>
	<g>
		<path class="st0" d="M445.4,33.8H261.1V15.4c0-8.7-6.7-15.4-15.4-15.4s-15.4,6.7-15.4,15.4v18.4H46.1c-8.7,0-15.4,6.7-15.4,15.4
			v257.5h430.1V49.2C460.8,40.4,454.1,33.8,445.4,33.8z"/>
	</g>
</g>
<g>
	<g>
		<path class="st0" d="M476.2,332.3H15.4c-8.2,0-15.4,7.2-15.4,15.4c0,8.7,6.7,15.4,15.4,15.4h199.2l-90.6,95.7
			c-5.6,6.1-5.6,15.9,0.5,21.5s15.9,5.6,21.5-0.5l84.5-89.1v85.5c0,8.7,6.7,15.4,15.4,15.4s15.4-6.7,15.4-15.4v-85.5l84.5,89.1
			c5.6,6.1,15.4,6.7,21.5,0.5c6.1-5.6,6.7-15.4,0.5-21.5L277,363h199.2c8.7,0,15.4-6.7,15.4-15.4
			C491.5,338.9,484.9,332.3,476.2,332.3z"/>
	</g>
</g>
</svg>
